<svg xmlns="http://www.w3.org/2000/svg" width="13.23" height="13.23" viewBox="0 0 13.23 13.23"><defs><style>.a{fill:#fff;stroke:#fff;stroke-width:0.2px;}</style></defs><g transform="translate(0.1 0.1)"><path class="a" d="M240.407,9.229A.407.407,0,0,1,240,8.822V.407a.407.407,0,1,1,.814,0V8.822A.407.407,0,0,1,240.407,9.229Zm0,0" transform="translate(-233.892)"/><path class="a" d="M157.251,248.3a.4.4,0,0,1-.288-.119l-2.172-2.172a.407.407,0,1,1,.576-.576l1.884,1.884,1.884-1.884a.407.407,0,1,1,.576.576l-2.172,2.172A.408.408,0,0,1,157.251,248.3Zm0,0" transform="translate(-150.736 -239.073)"/><path class="a" d="M11.537,345.675H1.493A1.494,1.494,0,0,1,0,344.182v-2.443a.407.407,0,1,1,.814,0v2.443a.68.68,0,0,0,.679.679H11.537a.68.68,0,0,0,.679-.679v-2.443a.407.407,0,1,1,.814,0v2.443A1.494,1.494,0,0,1,11.537,345.675Zm0,0" transform="translate(0 -332.646)"/></g></svg>