<?xml version="1.0" encoding="utf-8"?>
<!-- Generator: Adobe Illustrator 16.0.3, SVG Export Plug-In . SVG Version: 6.00 Build 0)  -->
<!DOCTYPE svg PUBLIC "-//W3C//DTD SVG 1.1//EN" "http://www.w3.org/Graphics/SVG/1.1/DTD/svg11.dtd">
<svg version="1.1" id="Capa_1" xmlns="http://www.w3.org/2000/svg" xmlns:xlink="http://www.w3.org/1999/xlink" x="0px" y="0px"
	 width="25px" height="24px" viewBox="0 0 25 24" enable-background="new 0 0 25 24" xml:space="preserve">
<g>
	<path fill="#EA3E3C" d="M12.5,0.313C6.045,0.313,0.813,5.545,0.813,12S6.045,23.688,12.5,23.688
		c6.454,0,11.688-5.231,11.688-11.688C24.18,5.548,18.952,0.32,12.5,0.313z M17.422,12.373c-0.082,0.162-0.213,0.294-0.375,0.374
		v0.005l-6.678,3.34c-0.413,0.205-0.914,0.037-1.12-0.375C9.189,15.6,9.16,15.471,9.161,15.34V8.661
		c0-0.461,0.374-0.834,0.835-0.835c0.129,0,0.257,0.029,0.373,0.088l6.678,3.339C17.46,11.458,17.628,11.96,17.422,12.373z"/>
	<g transform="translate(0)">
		<g transform="translate(0)">
			<path fill="#FFFFFF" d="M17.227,11.022l-6.671-4.005C10.292,6.848,9.99,6.75,9.678,6.734c-0.499,0-0.807,0.352-0.807,0.938v8.655
				c0,0.588,0.308,0.938,0.806,0.938c0.311-0.016,0.612-0.114,0.872-0.283l6.675-4.01c0.379-0.184,0.633-0.555,0.664-0.975
				C17.859,11.577,17.605,11.205,17.227,11.022z"/>
		</g>
	</g>
</g>
</svg>
